<?xml version="1.0" standalone="no"?>
<!DOCTYPE svg PUBLIC "-//W3C//DTD SVG 20010904//EN"
 "http://www.w3.org/TR/2001/REC-SVG-20010904/DTD/svg10.dtd">
<svg version="1.0" xmlns="http://www.w3.org/2000/svg"
 width="4001.000000pt" height="2251.000000pt" viewBox="0 0 4001.000000 2251.000000"
 preserveAspectRatio="xMidYMid meet">

<g transform="translate(0.000000,2251.000000) scale(0.100000,-0.100000)"
fill="#000000" stroke="none">
<path d="M460 11120 l0 -4730 19480 0 19480 0 0 4730 0 4730 -19480 0 -19480
0 0 -4730z m8460 3480 c812 -67 1495 -278 2010 -622 549 -366 867 -834 976
-1433 26 -144 27 -535 1 -690 -117 -701 -503 -1390 -1152 -2054 -1164 -1192
-3006 -2072 -4835 -2311 -324 -42 -466 -52 -841 -57 -478 -7 -753 11 -1116 72
-786 133 -1421 419 -1857 835 -303 291 -495 610 -590 983 -49 189 -61 294 -61
522 1 285 35 495 129 780 351 1062 1345 2110 2731 2882 1150 641 2475 1031
3745 1103 183 10 683 4 860 -10z m21232 -651 c79 -16 187 -72 240 -124 139
-134 187 -290 154 -503 -17 -109 -210 -2341 -203 -2348 5 -5 1455 2452 1497
2536 103 207 266 348 486 422 92 30 270 33 354 4 152 -51 261 -153 322 -297
19 -46 22 -73 23 -179 0 -131 -9 -181 -52 -280 -13 -30 -23 -56 -21 -56 9 -4
-2797 -4681 -2844 -4741 -110 -138 -275 -246 -424 -278 -89 -19 -234 -19 -307
0 -177 46 -314 187 -353 364 -13 58 -15 100 -10 185 3 61 67 1092 141 2291 74
1199 135 2218 135 2265 0 120 22 210 76 318 102 202 315 369 529 415 85 19
186 21 257 6z m4171 -34 c89 -23 156 -62 223 -129 105 -105 144 -208 144 -375
0 -88 -5 -118 -26 -176 -14 -38 -344 -1091 -734 -2340 -390 -1248 -722 -2302
-739 -2342 -88 -214 -264 -382 -474 -454 -306 -105 -613 23 -707 297 -36 103
-37 192 -5 354 3 14 331 1067 730 2340 779 2486 758 2422 869 2560 99 123 247
221 395 261 84 23 245 25 324 4z m-18147 -4 c173 -33 322 -153 385 -311 30
-75 38 -246 15 -345 -58 -247 -270 -470 -524 -552 l-77 -25 -990 -1 -989 -2
-163 -515 c-90 -283 -163 -516 -163 -517 0 -1 406 -4 903 -5 900 -3 902 -3
967 -25 211 -72 340 -255 340 -484 0 -111 -13 -175 -56 -267 -81 -178 -214
-311 -397 -398 -138 -65 -110 -64 -1182 -64 l-970 0 -159 -502 c-87 -277 -161
-509 -163 -515 -4 -10 167 -13 834 -13 865 0 958 -4 1057 -41 119 -44 228
-154 278 -277 20 -50 22 -74 22 -192 0 -121 -3 -143 -28 -215 -84 -243 -289
-430 -541 -495 -76 -19 -111 -20 -1354 -20 -1099 0 -1285 2 -1334 15 -205 53
-351 216 -378 422 -10 77 -7 124 16 243 2 14 328 1049 724 2300 461 1457 733
2302 756 2350 112 228 300 385 530 441 64 16 171 18 1331 18 742 1 1282 -3
1310 -8z m8386 -18 c132 -50 232 -136 286 -245 40 -82 51 -134 52 -239 1 -268
-168 -529 -422 -653 -153 -75 -81 -70 -1183 -74 l-990 -3 -159 -502 c-87 -276
-161 -510 -164 -519 -4 -16 52 -17 899 -20 902 -3 904 -3 969 -25 166 -57 295
-198 329 -361 65 -309 -122 -639 -446 -789 -139 -64 -108 -63 -1180 -63 l-971
0 -11 -32 c-5 -18 -78 -247 -160 -509 -83 -261 -151 -478 -151 -482 0 -4 379
-7 843 -7 509 0 876 -4 927 -10 369 -44 549 -432 370 -795 -99 -200 -296 -361
-506 -415 -75 -19 -117 -20 -1358 -20 -1103 0 -1290 2 -1339 15 -310 81 -467
410 -342 719 14 33 338 1053 720 2266 382 1213 705 2236 717 2273 34 106 84
183 188 288 84 84 108 102 200 148 58 28 134 58 170 66 54 11 283 13 1360 12
l1295 -2 57 -22z m3741 -6 c156 -48 265 -115 363 -220 192 -205 259 -500 180
-792 -58 -215 -396 -1248 -430 -1316 -154 -302 -447 -514 -768 -554 l-56 -7
71 -36 c107 -53 224 -172 277 -283 22 -46 47 -115 55 -154 18 -87 19 -221 1
-300 -11 -48 -389 -1286 -492 -1610 -35 -113 -94 -207 -188 -301 -143 -142
-295 -212 -481 -221 -179 -9 -308 39 -414 153 -113 121 -161 284 -131 445 6
30 13 66 15 80 3 14 111 363 240 775 259 822 254 800 196 858 l-31 31 -213 6
c-227 7 -280 16 -367 67 -74 42 -119 83 -160 144 -54 81 -80 157 -88 259 l-7
87 -373 -1192 c-265 -843 -386 -1217 -417 -1281 -205 -425 -752 -576 -1041
-287 -125 126 -165 290 -122 502 6 30 329 1068 719 2305 389 1238 713 2273
720 2300 63 259 315 501 583 560 49 11 274 13 1166 12 l1105 -2 88 -28z m9933
22 c209 -38 376 -212 405 -423 34 -255 -92 -520 -327 -683 -50 -35 -165 -90
-229 -109 -53 -16 -103 -18 -440 -19 l-379 0 -626 -1980 c-344 -1089 -632
-2005 -638 -2036 -55 -246 -292 -484 -550 -550 -92 -23 -234 -25 -315 -4 -165
43 -298 168 -349 328 -24 75 -28 225 -8 307 7 30 287 926 622 1990 334 1065
608 1940 608 1944 0 5 -125 7 -280 3 -312 -6 -353 -1 -462 54 -74 37 -172 133
-210 205 -191 357 99 872 547 969 79 18 2537 21 2631 4z m-18302 -23 c244 -64
429 -207 530 -408 64 -130 78 -188 83 -358 4 -131 2 -153 -20 -235 -14 -49
-316 -1010 -671 -2135 -355 -1125 -653 -2072 -661 -2105 -8 -33 -33 -96 -55
-140 -75 -154 -195 -271 -355 -350 -117 -58 -188 -76 -305 -76 -164 0 -271 42
-375 146 -68 68 -107 135 -130 220 -19 74 -19 193 -1 282 8 37 283 920 610
1961 328 1042 596 1903 596 1914 0 35 -32 88 -61 104 -24 12 -105 14 -526 12
l-498 -3 -646 -2050 c-363 -1152 -661 -2084 -682 -2128 -131 -282 -388 -457
-673 -459 -103 -1 -171 15 -257 60 -130 67 -232 204 -258 347 -16 84 -6 217
21 290 19 54 1205 3812 1387 4395 42 135 90 274 108 310 107 213 315 374 540
416 55 10 300 12 1150 10 1004 -2 1085 -3 1149 -20z m17924 -1501 c53 -29 89
-72 118 -140 12 -30 15 -60 12 -120 -8 -140 -83 -252 -213 -316 -161 -79 -343
-32 -410 105 -24 49 -27 64 -24 138 5 103 39 179 113 253 83 83 167 116 282
111 54 -2 82 -9 122 -31z"/>
<path d="M7560 13969 c-1436 -102 -2897 -752 -3855 -1715 -840 -843 -1178
-1810 -915 -2618 262 -806 1068 -1349 2217 -1495 977 -124 2120 79 3158 560
1132 526 2035 1362 2425 2244 272 615 286 1208 41 1720 -97 203 -199 345 -370
515 -457 455 -1148 726 -2016 790 -160 11 -515 11 -685 -1z m1198 -2711 l-3
-1753 -26 -67 c-77 -197 -226 -343 -419 -409 -89 -30 -258 -37 -355 -15 -200
47 -368 187 -454 378 -54 118 -54 121 -58 747 l-4 584 -927 -925 c-897 -895
-929 -926 -1002 -961 -99 -48 -184 -67 -300 -67 -115 0 -188 17 -295 69 -152
75 -278 221 -331 385 -23 68 -27 99 -27 196 -1 134 16 208 70 315 33 64 111
145 977 1012 l940 942 -630 3 c-705 4 -661 0 -818 81 -204 105 -345 341 -346
575 -1 298 205 567 492 642 71 18 129 19 1796 19 l1722 1 -2 -1752z"/>
<path d="M26201 12033 c-122 -389 -225 -717 -228 -728 -3 -11 10 2 27 28 56
83 129 155 214 211 177 117 223 127 596 132 162 3 311 9 331 14 21 6 51 26 70
48 30 33 50 88 168 459 l133 422 -18 37 c-11 21 -32 47 -47 58 -28 20 -41 21
-526 24 l-497 3 -223 -708z"/>
<path d="M37647 12359 c-61 -14 -110 -44 -160 -98 -60 -64 -88 -126 -94 -205
-4 -53 -1 -68 24 -116 53 -101 158 -140 278 -106 140 41 230 147 242 286 7 74
-9 122 -60 177 -58 63 -137 84 -230 62z m143 -99 c10 -6 24 -27 30 -48 15 -48
1 -87 -40 -110 -29 -16 -39 -32 -22 -32 14 0 32 -48 32 -85 0 -51 -9 -65 -41
-65 -28 0 -28 1 -23 43 8 60 -15 86 -83 94 l-51 6 -12 -59 c-16 -83 -16 -84
-45 -84 -16 0 -25 6 -25 16 0 16 45 275 56 323 5 24 6 24 104 18 55 -3 109
-11 120 -17z"/>
<path d="M37616 12203 c-3 -16 -8 -45 -12 -67 l-7 -39 61 5 c74 5 102 26 102
74 0 41 -21 54 -89 54 -46 0 -50 -2 -55 -27z"/>
</g>
</svg>
